<svg xmlns="http://www.w3.org/2000/svg" viewBox="0 0 200 200"><defs><linearGradient id="a" x1="50.2" x2="149.8" y1="72.4" y2="72.4" gradientUnits="userSpaceOnUse"><stop offset="0" stop-color="#ffbe31"/><stop offset="1" stop-color="red"/></linearGradient><linearGradient id="b" x1="72.7" x2="127.3" y1="107.5" y2="107.5" gradientUnits="userSpaceOnUse"><stop offset="0" stop-color="#ffbd31"/><stop offset="1" stop-color="#ff0002"/></linearGradient></defs><path d="m53.1 98.9 44.6-44.6c1.3-1.3 3.5-1.3 4.8 0l44.6 44.6s1.9-3.1 2.4-3.9c0 0 .7-1.7 0-2.4l-2.1-2.1-39.1-39.1-3.4-3.4c-2.7-2.7-7-2.7-9.6 0L50.7 92.6c-.7.7-.7 1.7 0 2.4" style="fill:url(#a)"/><path d="M124.7 122.3H75.3c-1.4 0-2.6-1.2-2.6-2.6V95.3c0-1.4 1.2-2.6 2.6-2.6s2.6 1.2 2.6 2.6v21.8h44.2V95.3c0-1.4 1.2-2.6 2.6-2.6s2.6 1.2 2.6 2.6v24.4c0 1.4-1.2 2.6-2.6 2.6Z" style="fill:url(#b)"/><path d="M86.7 175.9h-.2c-1.1 0-2.2-.5-3-1.3l-9.2-9.2c-.8-.8-1.3-1.9-1.3-3 0-1.2.4-2.3 1.2-3.1l5.5-5.5c.3-.3.3-.8 0-1.2l-8.7-8.7c-.3-.3-.8-.3-1.2 0l-5.5 5.5c-1.6 1.6-4.4 1.6-6.1-.1l-9.2-9.2c-1.7-1.7-1.8-4.5-.1-6.1l5.5-5.5c.3-.3.3-.8 0-1.2l-8.7-8.7c-.3-.3-.8-.3-1.2 0l-5.5 5.5c-1.6 1.6-4.4 1.6-6.1-.1l-9.2-9.2c-.8-.8-1.3-1.9-1.3-3 0-1.2.4-2.3 1.2-3.1l6-6-3-3c-2.1-2.1-3.3-4.8-3.4-7.6-.1-2.9.9-5.6 2.9-7.5l66-65.9c4-4 10.8-3.8 15.1.5l3 3 6.5-6.5c.8-.8 2-1.2 3.1-1.2s2.2.5 3 1.3L132 25c1.7 1.7 1.8 4.5.1 6.1l-6.5 6.5 9.8 9.8 6.5-6.5c1.6-1.6 4.4-1.6 6.1.1l9.2 9.2c.8.8 1.3 1.9 1.3 3 0 1.2-.4 2.3-1.2 3.1l-6.5 6.5 9.8 9.8 6.5-6.5c.8-.8 1.9-1.3 3.1-1.2 1.1 0 2.2.5 3 1.3l9.2 9.2c1.7 1.7 1.8 4.5.1 6.1L176 88l3 3c2.1 2.1 3.3 4.8 3.4 7.6.1 2.9-.9 5.6-2.9 7.5L113.6 172c-4 4-10.8 3.8-15.1-.5l-3-3-6 6c-.8.8-1.8 1.2-2.9 1.2Zm-14.8-36.7 12.6 12.6c.8.8.8 2.1 0 2.8l-7.5 7.5v.1s0 .2.2.3l9.2 9.2c.1.1.3.2.3.2h.1l7.5-7.5c.8-.8 2.1-.8 2.8 0l4.4 4.4c2.8 2.8 7 3 9.4.5l65.9-65.9a5.8 5.8 0 0 0 1.7-4.5c0-1.8-.9-3.6-2.2-4.9l-4.4-4.4c-.8-.8-.8-2.1 0-2.8l7.9-7.9s0-.3-.1-.5l-9.2-9.2c-.1-.1-.3-.2-.3-.2h-.1l-7.9 7.9c-.8.8-2.1.8-2.8 0l-12.6-12.6c-.8-.8-.8-2.1 0-2.8l7.9-7.9v-.1s0-.2-.2-.3l-9.2-9.2c-.2-.2-.4-.2-.5-.1l-9.3 9.3L120 37.7l9.3-9.3s0-.3-.1-.5l-9.2-9.2c-.1-.1-.3-.2-.3-.2h-.1l-9.3 9.3-5.8-5.8c-2.8-2.8-7-3-9.4-.5L29 87.5a5.8 5.8 0 0 0-1.7 4.5c0 1.8.9 3.6 2.2 4.9l4.4 4.4c.8.8.8 2.1 0 2.8l-7.5 7.5v.1s0 .2.2.3l9.2 9.2c.2.2.4.2.5.1l7.5-7.5c.8-.8 2.1-.8 2.8 0l12.6 12.6c.8.8.8 2.1 0 2.8l-7.5 7.5s0 .3.1.5l9.2 9.2c.2.2.4.2.5.1L69 139c.8-.8 2.1-.8 2.8 0Z" style="fill:#0094aa"/></svg>